<?xml version="1.0" encoding="utf-8"?>
<svg id="master-artboard" viewBox="0 0 1400 980" version="1.1" xmlns="http://www.w3.org/2000/svg" x="0px" y="0px" style="enable-background:new 0 0 1400 980;" width="1400px" height="980px"><rect id="ee-background" x="0" y="0" width="1400" height="980" style="fill: white; fill-opacity: 0; pointer-events: none;"/>

<path d="M 0 0 H 1400 V 980 H 0 V 0 Z" class="st0" style="fill: rgb(20, 21, 31);" transform="matrix(1, 0, 0, 1, 1.4210854715202004e-14, 0)"/><path d="M 0 0 H 1400 V 980 H 0 V 0 Z" class="st1" style="fill: rgb(36, 48, 94); fill-opacity: 1;" transform="matrix(1.0064448142538265, 0, 0, 1.0064448142538265, -9.022739955357059, 0)"/>
<g transform="matrix(1, 0, 0, 1, 1.4210854715202004e-14, 0)">
		
			<path d="M 172.5 112.400002 H 433.600006 V 472.900002 H 172.5 V 112.400002 Z" transform="matrix(0.896 -0.444 0.444 0.896 -98.4418 164.987)" class="st2" style="opacity: 0.15;"/>
		
			<path d="M 159.699997 118.400002 H 420.800003 V 478.900002 H 159.699997 V 118.400002 Z" transform="matrix(0.896 -0.444 0.444 0.896 -102.4391 159.9262)" class="st3" style="fill: rgb(168, 208, 230); stroke: rgb(0, 0, 0); stroke-width: 2; stroke-miterlimit: 10;"/>
		
			<path d="M 178.800003 138.199997 H 402.600006 V 460.699997 H 178.800003 V 138.199997 Z" transform="matrix(0.896 -0.444 0.444 0.896 -102.7555 160.1892)" class="st4" style="fill: rgb(255, 255, 255);"/>
		<g>
			<g>
				<path class="st5" d="M253,381.9c-1.3,5.3-1.8,10.8-1.1,16.3c0.3,2.3,0.6,8.9,3.6,10c3.3,1.2,4.7-5.1,5.5-6.9&#10;&#9;&#9;&#9;&#9;&#9;c2.6-5.8,5.1-11.7,7.4-17.7c-0.7-0.2-1.4-0.4-2.2-0.6c-0.9,4.1-1.8,9-1.1,13.2c0.2,1.2,0.4,2.8,1.6,3.5c1,0.6,1.9,0.3,2.8-0.3&#10;&#9;&#9;&#9;&#9;&#9;c1.2-0.8,1.8-2.9,2.9-3.8c2-1.8,4.7-2.7,7.2-3.5c-0.5-0.4-1-0.7-1.4-1.1c-0.3,2.9-0.5,5.8-0.8,8.8c-0.1,1.3,1.8,1.7,2.4,0.6&#10;&#9;&#9;&#9;&#9;&#9;c1-1.6,1.9-3.1,2.6-4.8c0.6-1.3-1.1-2.3-1.9-1.1c-1.1,1.5-2,3-2.9,4.6c0.8,0.2,1.6,0.4,2.4,0.6c0.2-2.9,0.3-5.8,0.5-8.8&#10;&#9;&#9;&#9;&#9;&#9;c0-0.7-0.8-1.3-1.4-1.1c-3.5,1.3-6.3,2.7-9,5.3c-1.9,1.8-3,2.8-3.1-0.8c-0.2-3.7,0.5-7.2,1.5-10.8c0.3-1.2-1.5-2.1-2.1-0.9&#10;&#9;&#9;&#9;&#9;&#9;c-1.3,3-2.6,6-3.8,9c-1.5,3.6-2.5,8.1-4.5,11.4c-2.6,4.3-3.8,3.3-4.9-0.6c-0.6-2.3-1-4.7-1.2-7.1&#10;&#9;&#9;&#9;&#9;&#9;C251.6,390.8,252.1,386.4,253,381.9C253.1,381.9,253,381.8,253,381.9L253,381.9z" style="fill: rgb(0, 122, 180);"/>
			</g>
		</g>
		<g>
			<g>
				<path class="st5" d="M362.8,334.8c3.8-2.3,10.4-5.3,15-4.4c4.2,0.8,1.4,1.8-0.3,3.2c-1.7,1.6-3.4,3.2-5,5&#10;&#9;&#9;&#9;&#9;&#9;c-3.9,4.4-7.7,9.7-4.5,15.5c0.2,0.4,0.6,0.6,1,0.6c6.9-0.2,1.2-12.2-0.3-15c-0.5,0.7-1.1,1.4-1.6,2.1c4.5,1.1,9.1,1.9,13.7,2.4&#10;&#9;&#9;&#9;&#9;&#9;c4.2,0.4,9,1.6,13.2,0.5c2.1-0.6,4.1-1.9,4.4-4.2c0.5-3.2-2.6-4.8-4-7.2c-0.7,0.6-1.5,1.1-2.2,1.7c1.2,1.5,2.5,2.6,4.2,3.5&#10;&#9;&#9;&#9;&#9;&#9;c0.5,0.3,1.1,0.2,1.6-0.2c1.2-0.9,3.1-4.9,2.2-6.2c0.9,1.3,2.9,0.1,2.1-1.2c-0.8-1.3-2.2-1.9-3.6-1.1c-2.9,1.5-0.4,9.3-4.3,3.6&#10;&#9;&#9;&#9;&#9;&#9;c-1-1.5-3.2-0.2-2.4,1.4c0.7,1.6,2.2,3.1,2.2,4.9c-0.1,2.4-1.5,1.9-3.5,2.1c-1.4,0.2-3,0.1-4.5,0.1c-6.1,0-12.4-1.3-18.3-2.7&#10;&#9;&#9;&#9;&#9;&#9;c-1.3-0.3-2.2,1-1.6,2.1c1,2,1.8,4,2.5,6.2c0.2,0.6,0.3,1.1,0.5,1.7c-0.1-0.3-0.3-0.5-0.4-0.8c0.5-1.5,1.3-2.8,2.3-4&#10;&#9;&#9;&#9;&#9;&#9;c0.6-0.9,1.3-1.7,2.1-2.5c1-1.1,2-2.1,3-3.2c1.6-1.7,8.1-5.7,6.5-8.7c-1.4-2.6-6-1.7-8.2-1.3c-4.6,0.7-8.5,2.9-12.1,5.9&#10;&#9;&#9;&#9;&#9;&#9;C362.2,334.5,362.5,334.9,362.8,334.8L362.8,334.8z" style="fill: rgb(0, 122, 180);"/>
			</g>
		</g>
		<path d="M 170.100006 252.899994 L 324.799988 175.199997" class="st6" style="fill: none; stroke: rgb(0, 122, 180); stroke-width: 2; stroke-miterlimit: 10;"/>
		<path d="M 179.800003 272.899994 L 334.5 195.300003" class="st6" style="fill: none; stroke: rgb(0, 122, 180); stroke-width: 2; stroke-miterlimit: 10;"/>
		<path d="M 189.5 293 L 344.200012 215.300003" class="st6" style="fill: none; stroke: rgb(0, 122, 180); stroke-width: 2; stroke-miterlimit: 10;"/>
		<path d="M 199.300003 313 L 354 235.300003" class="st6" style="fill: none; stroke: rgb(0, 122, 180); stroke-width: 2; stroke-miterlimit: 10;"/>
		<path d="M 209 333 L 363.700012 255.399994" class="st6" style="fill: none; stroke: rgb(0, 122, 180); stroke-width: 2; stroke-miterlimit: 10;"/>
		
			<path d="M 162.300003 133.600006 H 268 V 160.400005 H 162.300003 V 133.600006 Z" transform="matrix(0.896 -0.444 0.444 0.896 -42.9273 110.801)" class="st7" style="fill: rgb(247, 108, 108); stroke: rgb(0, 0, 0); stroke-width: 1.9861; stroke-miterlimit: 10;"/>
		<path d="M 224.700006 135.899994 A 15.1 9.1 0 0 1 209.600006 144.999994 A 15.1 9.1 0 0 1 194.500006 135.899994 A 15.1 9.1 0 0 1 209.600006 126.799994 A 15.1 9.1 0 0 1 224.700006 135.899994 Z" transform="matrix(0.896 -0.444 0.444 0.896 -38.5406 107.1862)" class="st7" style="fill: rgb(243, 110, 101); stroke: rgb(0, 0, 0); stroke-width: 1.9861; stroke-miterlimit: 10;"/>
	</g>
<g transform="matrix(1, 0, 0, 1, 2.2737367544323206e-13, 0)">
		
			<path d="M 131.300003 598.799988 H 485.500015 V 875 H 131.300003 V 598.799988 Z" transform="matrix(0.9701 -0.2426 0.2426 0.9701 -169.5739 96.8405)" class="st2" style="opacity: 0.15;"/>
		
			<path d="M 147.5 594.700012 H 501.700012 V 870.900024 H 147.5 V 594.700012 Z" transform="matrix(0.9701 -0.2426 0.2426 0.9701 -168.1053 100.6539)" class="st3" style="fill: rgb(168, 208, 230); stroke: rgb(0, 0, 0); stroke-width: 2; stroke-miterlimit: 10;"/>
		<path d="M 522.0999755859375 774.0999755859375 L 528.7999877929688 800.5999755859375 L 175.5 888.4000244140625 L 168.89999389648438 861.7999877929688 Z" class="st7" style="fill: rgb(247, 108, 108); stroke: rgb(0, 0, 0); stroke-width: 1.9861; stroke-miterlimit: 10;"/>
		
			<path d="M 316.299988 641 H 426.199989 V 801.300003 H 316.299988 V 641 Z" transform="matrix(0.9701 -0.2426 0.2426 0.9701 -163.884 111.6213)" class="st7" style="fill: rgb(248, 233, 161); stroke: rgb(0, 0, 0); stroke-width: 1.9861; stroke-miterlimit: 10;"/>
		
			<path d="M 117.800003 598.400024 H 472.000015 V 629.700024 H 117.800003 V 598.400024 Z" transform="matrix(0.9701 -0.2426 0.2426 0.9701 -140.1696 89.8932)" class="st8" style="stroke: rgb(0, 0, 0); stroke-width: 2; stroke-miterlimit: 10; fill: rgb(255, 255, 255);"/>
	</g>
<g transform="matrix(1, 0, 0, 1, 1.4210854715202004e-14, 0)">
		<g class="st2" style="opacity: 0.15;">
			<path d="M 478.70001220703125 85.80000305175781 L 477.20001220703125 56.70000076293945 L 496 78.9000015258789 Z"/>
			<path d="M 525.900024 73 H 544.600025 V 333.299988 H 525.900024 V 73 Z" transform="matrix(0.9297 -0.3684 0.3684 0.9297 -37.2126 211.4553)"/>
		</g>
		<path d="M 484.29998779296875 72.80000305175781 L 482.79998779296875 43.70000076293945 L 501.6000061035156 65.9000015258789 Z" class="st9" style="fill: rgb(246, 228, 190);"/>
		<path d="M 483.1000061035156 49.29999923706055 L 482.79998779296875 43.70000076293945 L 486.3999938964844 47.900001525878906 Z" class="st3" style="fill: rgb(0, 122, 179); stroke: rgb(0, 0, 0); stroke-width: 2; stroke-miterlimit: 10;"/>
		
			<path d="M 531.5 60 H 550.200001 V 320.299988 H 531.5 V 60 Z" transform="matrix(0.9297 -0.3684 0.3684 0.9297 -32.0363 212.6102)" class="st3" style="fill: rgb(168, 208, 230); stroke: rgb(0, 0, 0); stroke-width: 2; stroke-miterlimit: 10;"/>
	<path d="M -914.1790771484375 825.2507934570312" style="fill: rgb(168, 208, 230); fill-opacity: 1; stroke: rgb(0, 0, 0); stroke-opacity: 1; stroke-width: 2; paint-order: stroke;"/></g><path d="M 400.799988 119.400002 H 474.899986 V 164.100002 H 400.799988 V 119.400002 Z" transform="matrix(0.3969000279903412, -0.9179000258445741, 0.9179000258445741, 0.3969000279903412, 133.92739868164065, 487.38360595703125)" class="st2" style="opacity: 0.15;"/><path d="M 405.899994 107.699997 H 479.999992 V 152.399998 H 405.899994 V 107.699997 Z" transform="matrix(0.3969000279903412, -0.9179000258445741, 0.9179000258445741, 0.3969000279903412, 147.7507019042969, 484.96490478515625)" class="st7" style="fill: rgb(247, 108, 108); stroke: rgb(0, 0, 0); stroke-width: 1.9861; stroke-miterlimit: 10;"/><path d="M 421.200012 131 H 444.400013 V 175.700001 H 421.200012 V 131 Z" transform="matrix(0.3969000279903412, -0.9179000258445741, 0.9179000258445741, 0.3969000279903412, 120.2185974121094, 489.78131103515625)" class="st3" style="fill: rgb(248, 233, 161); stroke: rgb(0, 0, 0); stroke-width: 2; stroke-miterlimit: 10;"/>
<g transform="matrix(1, 0, 0, 1, 1.4210854715202004e-14, 0)">
		
			<path d="M 730.799988 622.099976 H 737.499988 V 635.499975 H 730.799988 V 622.099976 Z" transform="matrix(0.9297 -0.3684 0.3684 0.9297 -179.9933 314.6516)" class="st10" style="fill: rgb(255, 255, 255); stroke: rgb(0, 0, 0); stroke-width: 2;"/>
		
			<path d="M 694.700012 618 H 749.000011 V 629.6 H 694.700012 V 618 Z" transform="matrix(0.9297 -0.3684 0.3684 0.9297 -179.0383 309.7798)" class="st4" style="fill: rgb(255, 255, 255);"/>
		<path class="st11" d="M655.4,543.1l-44.3,109.5c-1.1,2.8-1.7,5.8-1.7,8.8v22.5c0,12.9,10.5,23.4,23.4,23.4h202.7&#10;&#9;&#9;&#9;c12.9,0,23.4,10.5,23.4,23.4v0c0,12.9-10.5,23.4-23.4,23.4h-83.5c-12.9,0-23.4,10.5-23.4,23.4v60.5c0,12.9,10.5,23.4,23.4,23.4&#10;&#9;&#9;&#9;h153.2c12.9,0,23.4-10.5,23.4-23.4V687.2c0-12.9,10.5-23.4,23.4-23.4h53c12.9,0,23.4,10.5,23.4,23.4v33&#10;&#9;&#9;&#9;c0,12.9,10.5,23.4,23.4,23.4h85.8c12.9,0,23.4-10.5,23.4-23.4v-61.9c0-6.7-2.9-13.1-7.9-17.5l-13.5-12" style="fill: none; stroke: rgb(255, 255, 255); stroke-width: 3;"/>
		<path class="st11" d="M731.9,619.8l-79.2,30.6c-7,2.7-11.7,9.5-11.7,17v39.7" style="fill: none; stroke: rgb(255, 255, 255); stroke-width: 3;"/>
		<path class="st4" d="M744.1,653.9c-8.2,3.2-17.4-0.8-20.7-8.9c-3.2-8.2,2.8-12.2,11-15.5c8.2-3.2,15.4-4.4,18.6,3.7&#10;&#9;&#9;&#9;C756.3,641.4,752.3,650.6,744.1,653.9z" style="fill: rgb(255, 255, 255);"/>
	</g><path d="M 664.200012 531.200012 H 670.900012 V 544.600012 H 664.200012 V 531.200012 Z" transform="matrix(0.3969000279903412, -0.9179000258445741, 0.9179000258445741, 0.3969000279903412, -91.09040069580075, 937.1234130859375)" class="st10" style="fill: rgb(255, 255, 255); stroke: rgb(0, 0, 0); stroke-width: 2;"/><path d="M 628.299988 537.299988 H 682.599987 V 548.899988 H 628.299988 V 537.299988 Z" transform="matrix(0.3969000279903412, -0.9179000258445741, 0.9179000258445741, 0.3969000279903412, -103.19869995117185, 929.084228515625)" class="st4" style="fill: rgb(255, 255, 255);"/><path class="st4" d="M692.3,548.6c-3.5,8.1-12.9,11.8-20.9,8.3c-8.1-3.5-6.6-10.6-3.2-18.7c3.5-8.1,7.7-14,15.8-10.5&#10;&#9;&#9;&#9;C692.1,531.1,695.8,540.5,692.3,548.6z" style="fill: rgb(255, 255, 255);" transform="matrix(1, 0, 0, 1, 2.842170943040401e-14, 0)"/>
<g transform="matrix(1, 0, 0, 1, 1.4210854715202004e-14, 0)">
		<path class="st2" d="M1124,665c-1.7,4-6.4,5.8-10.4,4.1L680.1,481.6c-4-1.7-5.8-6.4-4.1-10.4l106.6-246.5c1.7-4,6.4-5.8,10.4-4.1&#10;&#9;&#9;&#9;l433.6,187.5c4,1.7,5.8,6.4,4.1,10.4L1124,665z" style="opacity: 0.15;"/>
		<path class="st10" d="M1129.7,652c-1.7,4-6.4,5.8-10.4,4.1L685.7,468.6c-4-1.7-5.8-6.4-4.1-10.4l106.6-246.5&#10;&#9;&#9;&#9;c1.7-4,6.4-5.8,10.4-4.1l433.6,187.5c4,1.7,5.8,6.4,4.1,10.4L1129.7,652z" style="fill: rgb(255, 255, 255); stroke: rgb(0, 0, 0); stroke-width: 2;"/>
		
			<path d="M 891.200012 203.899994 H 1051.400009 V 602.5 H 891.200012 V 203.899994 Z" transform="matrix(0.3969 -0.9179 0.9179 0.3969 215.6877 1134.6893)" class="st12" style="fill: rgb(220, 221, 222); stroke: rgb(0, 0, 0); stroke-width: 2;"/>
		
			<path d="M 879.299988 432.299988 H 963.499985 V 605.199982 H 879.299988 V 432.299988 Z" transform="matrix(0.3969 -0.9179 0.9179 0.3969 79.5183 1158.5115)" class="st12" style="fill: rgb(220, 221, 222); stroke: rgb(0, 0, 0); stroke-width: 2;"/>
		<g>
			
				<path d="M 817.700012 264 H 841.600012 V 287.9 H 817.700012 V 264 Z" transform="matrix(0.3969 -0.9179 0.9179 0.3969 247.0675 927.957)" class="st3" style="fill: rgb(168, 208, 230); stroke: rgb(0, 0, 0); stroke-width: 2; stroke-miterlimit: 10;"/>
			
				<path d="M 847 276.700012 H 870.9 V 300.600012 H 847 V 276.700012 Z" transform="matrix(0.3969 -0.9179 0.9179 0.3969 253.0977 962.426)" class="st3" style="fill: rgb(168, 208, 230); stroke: rgb(0, 0, 0); stroke-width: 2; stroke-miterlimit: 10;"/>
			
				<path d="M 874.400024 288.5 H 898.300024 V 312.4 H 874.400024 V 288.5 Z" transform="matrix(0.3969 -0.9178 0.9178 0.3969 258.7324 994.7725)" class="st3" style="fill: rgb(168, 208, 230); stroke: rgb(0, 0, 0); stroke-width: 2; stroke-miterlimit: 10;"/>
			
				<path d="M 929.299988 312.299988 H 953.199987 V 336.199987 H 929.299988 V 312.299988 Z" transform="matrix(0.3969 -0.9179 0.9179 0.3969 270.0685 1059.5239)" class="st3" style="fill: rgb(168, 208, 230); stroke: rgb(0, 0, 0); stroke-width: 2; stroke-miterlimit: 10;"/>
			
				<path d="M 901.900024 300.399994 H 925.800024 V 324.299994 H 901.900024 V 300.399994 Z" transform="matrix(0.3969 -0.9179 0.9179 0.3969 264.4054 1027.1525)" class="st3" style="fill: rgb(168, 208, 230); stroke: rgb(0, 0, 0); stroke-width: 2; stroke-miterlimit: 10;"/>
			
				<path d="M 956.799988 324.200012 H 980.699987 V 348.100012 H 956.799988 V 324.200012 Z" transform="matrix(0.3969 -0.9179 0.9179 0.3969 275.7422 1091.9056)" class="st3" style="fill: rgb(168, 208, 230); stroke: rgb(0, 0, 0); stroke-width: 2; stroke-miterlimit: 10;"/>
			
				<path d="M 984.299988 336.100006 H 1008.199987 V 360.000006 H 984.299988 V 336.100006 Z" transform="matrix(0.3969 -0.9179 0.9179 0.3969 281.428 1124.2977)" class="st3" style="fill: rgb(168, 208, 230); stroke: rgb(0, 0, 0); stroke-width: 2; stroke-miterlimit: 10;"/>
			
				<path d="M 1011.700012 347.899994 H 1035.600012 V 371.799994 H 1011.700012 V 347.899994 Z" transform="matrix(0.3969 -0.9179 0.9179 0.3969 287.0543 1156.6359)" class="st3" style="fill: rgb(168, 208, 230); stroke: rgb(0, 0, 0); stroke-width: 2; stroke-miterlimit: 10;"/>
			
				<path d="M 1039.199951 359.799988 H 1063.099951 V 383.699987 H 1039.199951 V 359.799988 Z" transform="matrix(0.3969 -0.9179 0.9179 0.3969 292.7262 1189.0164)" class="st3" style="fill: rgb(168, 208, 230); stroke: rgb(0, 0, 0); stroke-width: 2; stroke-miterlimit: 10;"/>
			
				<path d="M 1066.699951 371.700012 H 1090.599951 V 395.600012 H 1066.699951 V 371.700012 Z" transform="matrix(0.3969 -0.9178 0.9178 0.3969 298.3674 1221.3655)" class="st3" style="fill: rgb(168, 208, 230); stroke: rgb(0, 0, 0); stroke-width: 2; stroke-miterlimit: 10;"/>
			
				<path d="M 1094.099976 383.600006 H 1117.999975 V 407.500006 H 1094.099976 V 383.600006 Z" transform="matrix(0.3969 -0.9179 0.9179 0.3969 304.0422 1253.7482)" class="st3" style="fill: rgb(168, 208, 230); stroke: rgb(0, 0, 0); stroke-width: 2; stroke-miterlimit: 10;"/>
			
				<path d="M 850 311.5 H 873.9 V 335.4 H 850 V 311.5 Z" transform="matrix(0.3969 -0.9179 0.9179 0.3969 222.8893 986.1854)" class="st3" style="fill: rgb(168, 208, 230); stroke: rgb(0, 0, 0); stroke-width: 2; stroke-miterlimit: 10;"/>
			
				<path d="M 814.299988 286.5 H 838.199987 V 329.599998 H 814.299988 V 286.5 Z" transform="matrix(0.3969 -0.9179 0.9179 0.3969 215.5526 944.1509)" class="st3" style="fill: rgb(168, 208, 230); stroke: rgb(0, 0, 0); stroke-width: 2; stroke-miterlimit: 10;"/>
			
				<path d="M 877.400024 323.399994 H 901.300024 V 347.299994 H 877.400024 V 323.399994 Z" transform="matrix(0.3969 -0.9179 0.9179 0.3969 228.5921 1018.5956)" class="st3" style="fill: rgb(168, 208, 230); stroke: rgb(0, 0, 0); stroke-width: 2; stroke-miterlimit: 10;"/>
			
				<path d="M 932.299988 347.200012 H 956.199987 V 371.100012 H 932.299988 V 347.200012 Z" transform="matrix(0.3969 -0.9179 0.9179 0.3969 239.9284 1083.3485)" class="st3" style="fill: rgb(168, 208, 230); stroke: rgb(0, 0, 0); stroke-width: 2; stroke-miterlimit: 10;"/>
			
				<path d="M 904.900024 335.299988 H 928.800024 V 359.199987 H 904.900024 V 335.299988 Z" transform="matrix(0.3969 -0.9178 0.9178 0.3969 234.2042 1050.917)" class="st3" style="fill: rgb(168, 208, 230); stroke: rgb(0, 0, 0); stroke-width: 2; stroke-miterlimit: 10;"/>
			
				<path d="M 959.799988 359 H 983.699987 V 382.9 H 959.799988 V 359 Z" transform="matrix(0.3969 -0.9178 0.9178 0.3969 245.5267 1115.6567)" class="st3" style="fill: rgb(168, 208, 230); stroke: rgb(0, 0, 0); stroke-width: 2; stroke-miterlimit: 10;"/>
			
				<path d="M 987.299988 370.899994 H 1011.199987 V 394.799994 H 987.299988 V 370.899994 Z" transform="matrix(0.3969 -0.9179 0.9179 0.3969 251.2343 1148.0724)" class="st3" style="fill: rgb(168, 208, 230); stroke: rgb(0, 0, 0); stroke-width: 2; stroke-miterlimit: 10;"/>
			
				<path d="M 1014.700012 382.799988 H 1038.600012 V 406.699987 H 1014.700012 V 382.799988 Z" transform="matrix(0.3969 -0.9179 0.9179 0.3969 256.877 1180.4235)" class="st3" style="fill: rgb(168, 208, 230); stroke: rgb(0, 0, 0); stroke-width: 2; stroke-miterlimit: 10;"/>
			
				<path d="M 1042.199951 394.700012 H 1066.099951 V 418.600012 H 1042.199951 V 394.700012 Z" transform="matrix(0.3969 -0.9179 0.9179 0.3969 262.5377 1212.793)" class="st3" style="fill: rgb(168, 208, 230); stroke: rgb(0, 0, 0); stroke-width: 2; stroke-miterlimit: 10;"/>
			
				<path d="M 1069.699951 406.5 H 1093.599951 V 430.4 H 1069.699951 V 406.5 Z" transform="matrix(0.3969 -0.9178 0.9178 0.3969 268.1791 1245.1432)" class="st3" style="fill: rgb(168, 208, 230); stroke: rgb(0, 0, 0); stroke-width: 2; stroke-miterlimit: 10;"/>
			
				<path d="M 850.099976 344.299988 H 873.999975 V 368.199987 H 850.099976 V 344.299988 Z" transform="matrix(0.3969 -0.9178 0.9178 0.3969 192.886 1006.0906)" class="st3" style="fill: rgb(168, 208, 230); stroke: rgb(0, 0, 0); stroke-width: 2; stroke-miterlimit: 10;"/>
			
				<path d="M 807.5 310.700012 H 831.4 V 364.900013 H 807.5 V 310.700012 Z" transform="matrix(0.3969 -0.9179 0.9179 0.3969 184.1224 955.8438)" class="st3" style="fill: rgb(168, 208, 230); stroke: rgb(0, 0, 0); stroke-width: 2; stroke-miterlimit: 10;"/>
			
				<path d="M 877.599976 356.200012 H 901.499975 V 380.100012 H 877.599976 V 356.200012 Z" transform="matrix(0.3969 -0.9179 0.9179 0.3969 198.58 1038.4934)" class="st3" style="fill: rgb(168, 208, 230); stroke: rgb(0, 0, 0); stroke-width: 2; stroke-miterlimit: 10;"/>
			
				<path d="M 932.5 379.899994 H 956.4 V 403.799994 H 932.5 V 379.899994 Z" transform="matrix(0.3969 -0.9179 0.9179 0.3969 209.9061 1103.2354)" class="st3" style="fill: rgb(168, 208, 230); stroke: rgb(0, 0, 0); stroke-width: 2; stroke-miterlimit: 10;"/>
			
				<path d="M 905.099976 368.100006 H 928.999975 V 392.000006 H 905.099976 V 368.100006 Z" transform="matrix(0.3969 -0.9179 0.9179 0.3969 204.2411 1070.863)" class="st3" style="fill: rgb(168, 208, 230); stroke: rgb(0, 0, 0); stroke-width: 2; stroke-miterlimit: 10;"/>
			
				<path d="M 960 391.799988 H 983.9 V 415.699987 H 960 V 391.799988 Z" transform="matrix(0.3969 -0.9179 0.9179 0.3969 215.5668 1135.6056)" class="st3" style="fill: rgb(168, 208, 230); stroke: rgb(0, 0, 0); stroke-width: 2; stroke-miterlimit: 10;"/>
			
				<path d="M 987.400024 403.700012 H 1011.300024 V 427.600012 H 987.400024 V 403.700012 Z" transform="matrix(0.3969 -0.9179 0.9179 0.3969 221.2743 1168.0226)" class="st3" style="fill: rgb(168, 208, 230); stroke: rgb(0, 0, 0); stroke-width: 2; stroke-miterlimit: 10;"/>
			
				<path d="M 1014.900024 415.600006 H 1038.800024 V 439.500006 H 1014.900024 V 415.600006 Z" transform="matrix(0.3969 -0.9178 0.9178 0.3969 226.8697 1200.3242)" class="st3" style="fill: rgb(168, 208, 230); stroke: rgb(0, 0, 0); stroke-width: 2; stroke-miterlimit: 10;"/>
			
				<path d="M 1042.400024 427.399994 H 1066.300024 V 451.299994 H 1042.400024 V 427.399994 Z" transform="matrix(0.3969 -0.9178 0.9178 0.3969 232.5211 1232.6836)" class="st3" style="fill: rgb(168, 208, 230); stroke: rgb(0, 0, 0); stroke-width: 2; stroke-miterlimit: 10;"/>
			
				<path d="M 850.200012 375.899994 H 874.100012 V 399.799994 H 850.200012 V 375.899994 Z" transform="matrix(0.3969 -0.9179 0.9179 0.3969 163.9883 1025.2928)" class="st3" style="fill: rgb(168, 208, 230); stroke: rgb(0, 0, 0); stroke-width: 2; stroke-miterlimit: 10;"/>
			
				<path d="M 802.599976 332.899994 H 826.499975 V 401.599991 H 802.599976 V 332.899994 Z" transform="matrix(0.3969 -0.9179 0.9179 0.3969 154.152 969.1815)" class="st3" style="fill: rgb(168, 208, 230); stroke: rgb(0, 0, 0); stroke-width: 2; stroke-miterlimit: 10;"/>
			
				<path d="M 877.700012 387.799988 H 901.600012 V 411.699987 H 877.700012 V 387.799988 Z" transform="matrix(0.397 -0.9178 0.9178 0.397 169.5938 1057.6011)" class="st3" style="fill: rgb(168, 208, 230); stroke: rgb(0, 0, 0); stroke-width: 2; stroke-miterlimit: 10;"/>
			
				<path d="M 932.599976 411.5 H 956.499975 V 435.4 H 932.599976 V 411.5 Z" transform="matrix(0.3969 -0.9179 0.9179 0.3969 180.9798 1122.4097)" class="st3" style="fill: rgb(168, 208, 230); stroke: rgb(0, 0, 0); stroke-width: 2; stroke-miterlimit: 10;"/>
			
				<path d="M 905.200012 399.700012 H 929.100012 V 423.600012 H 905.200012 V 399.700012 Z" transform="matrix(0.3969 -0.9179 0.9179 0.3969 175.316 1090.0371)" class="st3" style="fill: rgb(168, 208, 230); stroke: rgb(0, 0, 0); stroke-width: 2; stroke-miterlimit: 10;"/>
			
				<path d="M 769.900024 374.600006 H 793.800024 V 398.500006 H 769.900024 V 374.600006 Z" transform="matrix(0.3969 -0.9179 0.9179 0.3969 116.7408 950.7595)" class="st3" style="fill: rgb(168, 208, 230); stroke: rgb(0, 0, 0); stroke-width: 2; stroke-miterlimit: 10;"/>
			
				<path d="M 798.799988 387.100006 H 822.699987 V 411.000006 H 798.799988 V 387.100006 Z" transform="matrix(0.3969 -0.9179 0.9179 0.3969 122.6946 984.8306)" class="st3" style="fill: rgb(168, 208, 230); stroke: rgb(0, 0, 0); stroke-width: 2; stroke-miterlimit: 10;"/>
			
				<path d="M 853.700012 410.899994 H 877.600012 V 434.799994 H 853.700012 V 410.899994 Z" transform="matrix(0.3969 -0.9179 0.9179 0.3969 134.0212 1049.5732)" class="st3" style="fill: rgb(168, 208, 230); stroke: rgb(0, 0, 0); stroke-width: 2; stroke-miterlimit: 10;"/>
			
				<path d="M 935.900024 390.100006 H 959.800024 V 526.600006 H 935.900024 V 390.100006 Z" transform="matrix(0.3969 -0.9179 0.9179 0.3969 150.9502 1146.3553)" class="st3" style="fill: rgb(168, 208, 230); stroke: rgb(0, 0, 0); stroke-width: 2; stroke-miterlimit: 10;"/>
			
				<path d="M 826.299988 399 H 850.199987 V 422.9 H 826.299988 V 399 Z" transform="matrix(0.3969 -0.9179 0.9179 0.3969 128.3562 1017.1998)" class="st3" style="fill: rgb(168, 208, 230); stroke: rgb(0, 0, 0); stroke-width: 2; stroke-miterlimit: 10;"/>
			
				<path d="M 960.099976 423.399994 H 983.999975 V 447.299994 H 960.099976 V 423.399994 Z" transform="matrix(0.3969 -0.9179 0.9179 0.3969 186.6234 1154.7607)" class="st3" style="fill: rgb(168, 208, 230); stroke: rgb(0, 0, 0); stroke-width: 2; stroke-miterlimit: 10;"/>
			
				<path d="M 987.599976 435.299988 H 1011.499975 V 459.199987 H 987.599976 V 435.299988 Z" transform="matrix(0.3969 -0.9179 0.9179 0.3969 192.2844 1187.1287)" class="st3" style="fill: rgb(168, 208, 230); stroke: rgb(0, 0, 0); stroke-width: 2; stroke-miterlimit: 10;"/>
			
				<path d="M 1015 447.200012 H 1038.9 V 471.100012 H 1015 V 447.200012 Z" transform="matrix(0.3969 -0.9178 0.9178 0.3969 197.927 1219.4784)" class="st3" style="fill: rgb(168, 208, 230); stroke: rgb(0, 0, 0); stroke-width: 2; stroke-miterlimit: 10;"/>
			
				<path d="M 1042.5 459 H 1066.4 V 482.9 H 1042.5 V 459 Z" transform="matrix(0.3969 -0.9179 0.9179 0.3969 203.6221 1251.8846)" class="st3" style="fill: rgb(168, 208, 230); stroke: rgb(0, 0, 0); stroke-width: 2; stroke-miterlimit: 10;"/>
			
				<path d="M 1016.400024 481.200012 H 1040.300024 V 505.100012 H 1016.400024 V 481.200012 Z" transform="matrix(0.3969 -0.9179 0.9179 0.3969 167.564 1241.3262)" class="st3" style="fill: rgb(168, 208, 230); stroke: rgb(0, 0, 0); stroke-width: 2; stroke-miterlimit: 10;"/>
			
				<path d="M 1043.900024 493.100006 H 1067.800024 V 517.000006 H 1043.900024 V 493.100006 Z" transform="matrix(0.3969 -0.9179 0.9179 0.3969 173.2253 1273.6964)" class="st3" style="fill: rgb(168, 208, 230); stroke: rgb(0, 0, 0); stroke-width: 2; stroke-miterlimit: 10;"/>
			
				<path d="M 1071.400024 505 H 1095.300024 V 528.9 H 1071.400024 V 505 Z" transform="matrix(0.3969 -0.9179 0.9179 0.3969 178.8783 1306.0551)" class="st3" style="fill: rgb(168, 208, 230); stroke: rgb(0, 0, 0); stroke-width: 2; stroke-miterlimit: 10;"/>
			
				<path d="M 1101.300049 517.900024 H 1125.200048 V 541.800024 H 1101.300049 V 517.900024 Z" transform="matrix(0.3969 -0.9179 0.9179 0.3969 185.0655 1341.3163)" class="st3" style="fill: rgb(168, 208, 230); stroke: rgb(0, 0, 0); stroke-width: 2; stroke-miterlimit: 10;"/>
			
				<path d="M 1092.5 457.899994 H 1116.4 V 527.399994 H 1092.5 V 457.899994 Z" transform="matrix(0.3969 -0.9179 0.9179 0.3969 213.9204 1310.8163)" class="st3" style="fill: rgb(168, 208, 230); stroke: rgb(0, 0, 0); stroke-width: 2; stroke-miterlimit: 10;"/>
			
				<path d="M 1069.800049 439.299988 H 1093.700048 V 463.199987 H 1069.800049 V 439.299988 Z" transform="matrix(0.3969 -0.9178 0.9178 0.3969 238.1946 1265.0657)" class="st3" style="fill: rgb(168, 208, 230); stroke: rgb(0, 0, 0); stroke-width: 2; stroke-miterlimit: 10;"/>
			
				<path d="M 1110.800049 441.600006 H 1134.700048 V 496.300007 H 1110.800049 V 441.600006 Z" transform="matrix(0.3969 -0.9179 0.9179 0.3969 246.6615 1313.3506)" class="st3" style="fill: rgb(168, 208, 230); stroke: rgb(0, 0, 0); stroke-width: 2; stroke-miterlimit: 10;"/>
			
				<path d="M 1097.099976 418.399994 H 1120.999975 V 442.299994 H 1097.099976 V 418.399994 Z" transform="matrix(0.3969 -0.9179 0.9179 0.3969 273.9009 1277.5725)" class="st3" style="fill: rgb(168, 208, 230); stroke: rgb(0, 0, 0); stroke-width: 2; stroke-miterlimit: 10;"/>
			
				<path d="M 1131.199951 426.899994 H 1155.099951 V 463.199993 H 1131.199951 V 426.899994 Z" transform="matrix(0.3969 -0.9179 0.9179 0.3969 280.8729 1317.6322)" class="st3" style="fill: rgb(168, 208, 230); stroke: rgb(0, 0, 0); stroke-width: 2; stroke-miterlimit: 10;"/>
			
				<path d="M 1121.599976 395.399994 H 1145.499975 V 419.299994 H 1121.599976 V 395.399994 Z" transform="matrix(0.3969 -0.9179 0.9179 0.3969 309.7157 1286.1307)" class="st3" style="fill: rgb(168, 208, 230); stroke: rgb(0, 0, 0); stroke-width: 2; stroke-miterlimit: 10;"/>
			
				<path d="M 1149.099976 407.299988 H 1172.999975 V 431.199987 H 1149.099976 V 407.299988 Z" transform="matrix(0.3969 -0.9179 0.9179 0.3969 315.3912 1318.5139)" class="st3" style="fill: rgb(168, 208, 230); stroke: rgb(0, 0, 0); stroke-width: 2; stroke-miterlimit: 10;"/>
		</g>
		
			<path d="M 1076.599976 -187.5 H 1086.299975 V 484.5 H 1076.599976 V -187.5 Z" transform="matrix(0.3969 -0.9179 0.9179 0.3969 515.9356 1082.1639)" class="st4" style="fill: rgb(255, 255, 255);"/>
		<path d="M 1237.699951171875 398.1000061035156 L 792.5 205.60000610351562 L 771.0999755859375 19.600000381469727 L 1387.9000244140625 286.29998779296875 Z" class="st3" style="fill: rgb(168, 208, 230); stroke: rgb(0, 0, 0); stroke-width: 2; stroke-miterlimit: 10;"/>
		<path d="M 1235.9000244140625 387 L 801.9000244140625 199.3000030517578 L 785.7999877929688 50.29999923706055 L 1355.4000244140625 296.6000061035156 Z" class="st7" style="fill: rgb(247, 108, 108); stroke: rgb(0, 0, 0); stroke-width: 1.9861; stroke-miterlimit: 10;"/>
	<path d="M -832.071533203125 886.3051147460938" style="fill: rgb(248, 233, 161); fill-opacity: 1; stroke: rgb(0, 0, 0); stroke-opacity: 1; stroke-width: 1.9861; paint-order: stroke;"/></g>
<g transform="matrix(1, 0, 0, 1, 1.4210854715202004e-14, 0)">
		<g class="st2" style="opacity: 0.15;">
			<path d="M 1326.699951 517.400024 H 1348.599951 V 539.300024 H 1326.699951 V 517.400024 Z" transform="matrix(0.458 -0.889 0.889 0.458 255.3383 1475.548)"/>
			<path d="M 1275.099976 552.299988 H 1356.799973 V 588.799988 H 1275.099976 V 552.299988 Z" transform="matrix(0.4579 -0.889 0.889 0.4579 206.1667 1479.1454)"/>
		</g>
		
			<path d="M 1314.099976 511 H 1335.999975 V 532.9 H 1314.099976 V 511 Z" transform="matrix(0.458 -0.889 0.889 0.458 254.2808 1460.8613)" class="st4" style="fill: rgb(255, 255, 255);"/>
		
			<path d="M 1262.5 545.799988 H 1344.199997 V 582.299988 H 1262.5 V 545.799988 Z" transform="matrix(0.4579 -0.889 0.889 0.4579 205.1088 1464.4581)" class="st3" style="fill: rgb(248, 233, 161); stroke: rgb(0, 0, 0); stroke-width: 2; stroke-miterlimit: 10;"/>
		
			<path d="M 1265.099976 562.5 H 1337.099976 V 574.1 H 1265.099976 V 562.5 Z" transform="matrix(0.4579 -0.889 0.889 0.4579 200.1231 1464.8584)" class="st13" style="fill: rgb(100, 95, 94);"/>
		<g>
			
				<path d="M 1319.5 516.200012 H 1323.7 V 520.400012 H 1319.5 V 516.200012 Z" transform="matrix(0.4579 -0.889 0.889 0.4579 255.5892 1455.8466)" class="st13" style="fill: rgb(100, 95, 94);"/>
			
				<path d="M 1327.900024 520.599976 H 1332.100024 V 524.799975 H 1327.900024 V 520.599976 Z" transform="matrix(0.4579 -0.889 0.889 0.4579 256.2831 1465.6836)" class="st13" style="fill: rgb(100, 95, 94);"/>
		</g>
	<path d="M -333.11041259765625 452.6089782714844" style="fill: rgb(248, 233, 161); fill-opacity: 1; stroke: rgb(0, 0, 0); stroke-opacity: 1; stroke-width: 2; paint-order: stroke;"/></g>
<g transform="matrix(1, 0, 0, 1, 1.4210854715202004e-14, 0)">
		
			<path d="M 1320.399948 808.700012 A 67.699997 48.099998 0 0 1 1252.699951 856.800011 A 67.699997 48.099998 0 0 1 1184.999954 808.700012 A 67.699997 48.099998 0 0 1 1252.699951 760.600014 A 67.699997 48.099998 0 0 1 1320.399948 808.700012 Z" transform="matrix(0.7361 -0.6769 0.6769 0.7361 -216.7953 1061.3947)" class="st2" style="opacity: 0.15;"/>
		
			<path d="M 1326.000046 795.700012 A 67.699997 48.099998 0 0 1 1258.300049 843.800011 A 67.699997 48.099998 0 0 1 1190.600052 795.700012 A 67.699997 48.099998 0 0 1 1258.300049 747.600014 A 67.699997 48.099998 0 0 1 1326.000046 795.700012 Z" transform="matrix(0.7361 -0.6769 0.6769 0.7361 -206.5271 1061.7682)" class="st7" style="fill: rgb(247, 108, 108); stroke: rgb(0, 0, 0); stroke-width: 1.9861; stroke-miterlimit: 10;"/>
		
			<path d="M 1316.400024 761.700012 A 19.5 11.5 0 0 1 1296.900024 773.200012 A 19.5 11.5 0 0 1 1277.400024 761.700012 A 19.5 11.5 0 0 1 1296.900024 750.200012 A 19.5 11.5 0 0 1 1316.400024 761.700012 Z" transform="matrix(0.7361 -0.6769 0.6769 0.7361 -173.3392 1078.8901)" class="st4" style="fill: rgb(255, 255, 255);"/>
	</g>
<g transform="matrix(1, 0, 0, 1, 2.2737367544323206e-13, 1.1368683772161603e-13)">
		<g>
			<g>
				<g>
					<g>
						<g>
							<g>
								<g>
									<g>
										<path class="st6" d="M1255.3,506.5l-7.9-7.9c-0.8-0.8-0.8-1.8,0-2.6c0.8-0.8,1.9-0.8,2.6,0l7.9,7.9c0.8,0.8,0.8,1.8,0,2.6&#10;&#9;&#9;&#9;&#9;&#9;&#9;&#9;&#9;&#9;&#9;&#9;C1257.2,507.3,1256.1,507.3,1255.3,506.5z" style="fill: none; stroke: rgb(0, 122, 180); stroke-width: 2; stroke-miterlimit: 10;"/>
									</g>
								</g>
							</g>
						</g>
					</g>
				</g>
				<g>
					<g>
						<g>
							<g>
								<g>
									<g>
										<path class="st6" d="M1247.4,506.5c-0.8-0.8-0.8-1.8,0-2.6l7.9-7.9c0.8-0.8,1.9-0.8,2.6,0c0.8,0.8,0.8,1.8,0,2.6l-7.9,7.9&#10;&#9;&#9;&#9;&#9;&#9;&#9;&#9;&#9;&#9;&#9;&#9;C1249.2,507.3,1248.2,507.3,1247.4,506.5z" style="fill: none; stroke: rgb(0, 122, 180); stroke-width: 2; stroke-miterlimit: 10;"/>
									</g>
								</g>
							</g>
						</g>
					</g>
				</g>
			</g>
		</g>
		<g>
			<g>
				<g>
					<g>
						<g>
							<g>
								<g>
									<g>
										<path class="st6" d="M522.2,517.9l-7.9-7.9c-0.8-0.8-0.8-1.8,0-2.6c0.8-0.8,1.9-0.8,2.6,0l7.9,7.9c0.8,0.8,0.8,1.8,0,2.6&#10;&#9;&#9;&#9;&#9;&#9;&#9;&#9;&#9;&#9;&#9;&#9;C524,518.7,523,518.7,522.2,517.9z" style="fill: none; stroke: rgb(0, 122, 180); stroke-width: 2; stroke-miterlimit: 10;"/>
									</g>
								</g>
							</g>
						</g>
					</g>
				</g>
				<g>
					<g>
						<g>
							<g>
								<g>
									<g>
										<path class="st6" d="M514.3,517.9c-0.8-0.8-0.8-1.8,0-2.6l7.9-7.9c0.8-0.8,1.9-0.8,2.6,0c0.8,0.8,0.8,1.8,0,2.6l-7.9,7.9&#10;&#9;&#9;&#9;&#9;&#9;&#9;&#9;&#9;&#9;&#9;&#9;C516.1,518.7,515.1,518.7,514.3,517.9z" style="fill: none; stroke: rgb(0, 122, 180); stroke-width: 2; stroke-miterlimit: 10;"/>
									</g>
								</g>
							</g>
						</g>
					</g>
				</g>
			</g>
		</g>
		<g>
			<g>
				<g>
					<g>
						<g>
							<g>
								<g>
									<g>
										<path class="st6" d="M82.1,817.5l-7.9-7.9c-0.8-0.8-0.8-1.8,0-2.6c0.8-0.8,1.9-0.8,2.6,0l7.9,7.9c0.8,0.8,0.8,1.8,0,2.6&#10;&#9;&#9;&#9;&#9;&#9;&#9;&#9;&#9;&#9;&#9;&#9;C83.9,818.3,82.9,818.3,82.1,817.5z" style="fill: none; stroke: rgb(0, 122, 180); stroke-width: 2; stroke-miterlimit: 10;"/>
									</g>
								</g>
							</g>
						</g>
					</g>
				</g>
				<g>
					<g>
						<g>
							<g>
								<g>
									<g>
										<path class="st6" d="M74.2,817.5c-0.8-0.8-0.8-1.8,0-2.6l7.9-7.9c0.8-0.8,1.9-0.8,2.6,0c0.8,0.8,0.8,1.8,0,2.6l-7.9,7.9&#10;&#9;&#9;&#9;&#9;&#9;&#9;&#9;&#9;&#9;&#9;&#9;C76,818.3,74.9,818.3,74.2,817.5z" style="fill: none; stroke: rgb(0, 122, 180); stroke-width: 2; stroke-miterlimit: 10;"/>
									</g>
								</g>
							</g>
						</g>
					</g>
				</g>
			</g>
		</g>
		<g>
			<g>
				<g>
					<g>
						<g>
							<g>
								<g>
									<g>
										<path class="st6" d="M700.3,137.3l-7.9-7.9c-0.7-0.7-0.8-1.8-0.2-2.5c0.8-1,2-1,2.8-0.2l7.9,7.9c0.8,0.8,0.8,1.8,0,2.6&#10;&#9;&#9;&#9;&#9;&#9;&#9;&#9;&#9;&#9;&#9;&#9;C702.2,138.1,701.1,138.1,700.3,137.3z" style="fill: none; stroke: rgb(0, 122, 180); stroke-width: 2; stroke-miterlimit: 10;"/>
									</g>
								</g>
							</g>
						</g>
					</g>
				</g>
				<g>
					<g>
						<g>
							<g>
								<g>
									<g>
										<path class="st6" d="M692.4,137.3c-0.8-0.8-0.8-1.8,0-2.6l7.9-7.9c0.7-0.7,1.8-0.8,2.5-0.2c1,0.8,1,1.9,0.2,2.8l-7.9,7.9&#10;&#9;&#9;&#9;&#9;&#9;&#9;&#9;&#9;&#9;&#9;&#9;C694.3,138.1,693.2,138.1,692.4,137.3z" style="fill: none; stroke: rgb(0, 122, 180); stroke-width: 2; stroke-miterlimit: 10;"/>
									</g>
								</g>
							</g>
						</g>
					</g>
				</g>
			</g>
		</g>
		<g>
			<g>
				<path d="M 596 911.099976 L 526.200012 911.099976" class="st6" style="fill: none; stroke: rgb(0, 122, 180); stroke-width: 2; stroke-miterlimit: 10;"/>
			</g>
			<g>
				<path d="M 526.200012 909.299988 H 596.000015 V 912.999988 H 526.200012 V 909.299988 Z" class="st6" style="fill: none; stroke: rgb(0, 122, 180); stroke-width: 2; stroke-miterlimit: 10;"/>
			</g>
		</g>
		<g>
			<g>
				<path d="M 578.099976 920.5 L 557.200012 920.5" class="st6" style="fill: none; stroke: rgb(0, 122, 180); stroke-width: 2; stroke-miterlimit: 10;"/>
			</g>
			<g>
				<path d="M 557.200012 918.700012 H 578.200012 V 922.400012 H 557.200012 V 918.700012 Z" class="st6" style="fill: none; stroke: rgb(0, 122, 180); stroke-width: 2; stroke-miterlimit: 10;"/>
			</g>
		</g>
		<g>
			<g>
				<path d="M 1187.5 924.400024 L 1117.699951 924.400024" class="st6" style="fill: none; stroke: rgb(0, 122, 180); stroke-width: 2; stroke-miterlimit: 10;"/>
			</g>
			<g>
				<path d="M 1117.699951 922.599976 H 1187.499954 V 926.299976 H 1117.699951 V 922.599976 Z" class="st6" style="fill: none; stroke: rgb(0, 122, 180); stroke-width: 2; stroke-miterlimit: 10;"/>
			</g>
		</g>
		<g>
			<g>
				<path d="M 1169.599976 933.799988 L 1148.699951 933.799988" class="st6" style="fill: none; stroke: rgb(0, 122, 180); stroke-width: 2; stroke-miterlimit: 10;"/>
			</g>
			<g>
				<path d="M 1148.699951 932 H 1169.699951 V 935.7 H 1148.699951 V 932 Z" class="st6" style="fill: none; stroke: rgb(0, 122, 180); stroke-width: 2; stroke-miterlimit: 10;"/>
			</g>
		</g>
		<g>
			<g>
				<path class="st6" d="M670.8,893.9c1,6.4-4.4,11.9-10.8,10.8c-3.9-0.6-7-3.8-7.7-7.7c-1.1-6.4,4.4-11.9,10.9-10.8&#10;&#9;&#9;&#9;&#9;&#9;C667,886.8,670.1,890,670.8,893.9z" style="fill: none; stroke: rgb(0, 122, 180); stroke-width: 2; stroke-miterlimit: 10;"/>
			</g>
			<g>
				<path class="st6" d="M663.4,906.5c-7.7,1.3-14.2-5.3-13-13c0.8-4.6,4.5-8.4,9.2-9.2c7.7-1.3,14.2,5.3,13,13&#10;&#9;&#9;&#9;&#9;&#9;C671.8,902,668.1,905.7,663.4,906.5z M663,888c-5.3-1-9.9,3.6-8.9,8.9c0.6,3,3,5.4,5.9,5.9c5.3,1,9.9-3.6,8.9-8.9&#10;&#9;&#9;&#9;&#9;&#9;C668.4,891,666,888.6,663,888z" style="fill: none; stroke: rgb(0, 122, 180); stroke-width: 2; stroke-miterlimit: 10;"/>
			</g>
		</g>
		
		<g>
			<g>
				<path d="M 839.4 629.299988 A 9.4 9.4 0 0 1 830 638.699987 A 9.4 9.4 0 0 1 820.6 629.299988 A 9.4 9.4 0 0 1 830 619.899988 A 9.4 9.4 0 0 1 839.4 629.299988 Z" class="st6" style="fill: none; stroke: rgb(0, 122, 180); stroke-width: 2; stroke-miterlimit: 10;"/>
			</g>
			<g>
				<path class="st6" d="M830,640.6c-6.2,0-11.2-5-11.2-11.2c0-6.2,5-11.2,11.2-11.2c6.2,0,11.2,5,11.2,11.2&#10;&#9;&#9;&#9;&#9;&#9;C841.2,635.5,836.2,640.6,830,640.6z M830,621.8c-4.2,0-7.5,3.4-7.5,7.5c0,4.2,3.4,7.5,7.5,7.5c4.2,0,7.5-3.4,7.5-7.5&#10;&#9;&#9;&#9;&#9;&#9;C837.5,625.2,834.1,621.8,830,621.8z" style="fill: none; stroke: rgb(0, 122, 180); stroke-width: 2; stroke-miterlimit: 10;"/>
			</g>
		</g>
		<g>
			<g>
				<path d="M 611.400024 470.700012 L 574.099976 470.700012" class="st6" style="fill: none; stroke: rgb(0, 122, 180); stroke-width: 2; stroke-miterlimit: 10;"/>
			</g>
			<g>
				<path d="M 574.099976 468.799988 H 611.399975 V 472.499988 H 574.099976 V 468.799988 Z" class="st6" style="fill: none; stroke: rgb(0, 122, 180); stroke-width: 2; stroke-miterlimit: 10;"/>
			</g>
		</g>
		
		<g>
			<g>
				<g>
					<g>
						<g>
							<g>
								<g>
									<g>
										<path class="st6" d="M602.6,874.9l-7.9-7.9c-0.7-0.7-0.8-1.8-0.2-2.5c0.8-1,2-1,2.8-0.2l7.9,7.9c0.8,0.8,0.8,1.8,0,2.6&#10;&#9;&#9;&#9;&#9;&#9;&#9;&#9;&#9;&#9;&#9;&#9;C604.4,875.7,603.4,875.7,602.6,874.9z" style="fill: none; stroke: rgb(0, 122, 180); stroke-width: 2; stroke-miterlimit: 10;"/>
									</g>
								</g>
							</g>
						</g>
					</g>
				</g>
				<g>
					<g>
						<g>
							<g>
								<g>
									<g>
										<path class="st6" d="M594.7,874.9c-0.8-0.8-0.8-1.8,0-2.6l7.9-7.9c0.7-0.7,1.8-0.8,2.5-0.2c1,0.8,1,1.9,0.2,2.8l-7.9,7.9&#10;&#9;&#9;&#9;&#9;&#9;&#9;&#9;&#9;&#9;&#9;&#9;C596.5,875.7,595.4,875.7,594.7,874.9z" style="fill: none; stroke: rgb(0, 122, 180); stroke-width: 2; stroke-miterlimit: 10;"/>
									</g>
								</g>
							</g>
						</g>
					</g>
				</g>
			</g>
		</g>
		<g>
			<g>
				<g>
					<g>
						<g>
							<g>
								<g>
									<g>
										<path class="st6" d="M876.4,641.5l-7-7c-0.7-0.7-0.7-1.6,0-2.3c0.7-0.7,1.6-0.7,2.3,0l7,7c0.7,0.7,0.7,1.6,0,2.3&#10;&#9;&#9;&#9;&#9;&#9;&#9;&#9;&#9;&#9;&#9;&#9;C878.1,642.2,877.1,642.2,876.4,641.5z" style="fill: none; stroke: rgb(0, 122, 180); stroke-width: 2; stroke-miterlimit: 10;"/>
									</g>
								</g>
							</g>
						</g>
					</g>
				</g>
				<g>
					<g>
						<g>
							<g>
								<g>
									<g>
										<path class="st6" d="M869.5,641.5c-0.7-0.7-0.7-1.6,0-2.3l7-7c0.7-0.7,1.6-0.7,2.3,0c0.7,0.7,0.7,1.6,0,2.3l-7,7&#10;&#9;&#9;&#9;&#9;&#9;&#9;&#9;&#9;&#9;&#9;&#9;C871.1,642.2,870.2,642.2,869.5,641.5z" style="fill: none; stroke: rgb(0, 122, 180); stroke-width: 2; stroke-miterlimit: 10;"/>
									</g>
								</g>
							</g>
						</g>
					</g>
				</g>
			</g>
		</g>
		<g>
			<g>
				<path d="M 139.9 72.5 A 9.4 9.4 0 0 1 130.5 81.9 A 9.4 9.4 0 0 1 121.1 72.5 A 9.4 9.4 0 0 1 130.5 63.1 A 9.4 9.4 0 0 1 139.9 72.5 Z" class="st6" style="fill: none; stroke: rgb(0, 122, 180); stroke-width: 2; stroke-miterlimit: 10;"/>
			</g>
			<g>
				<path class="st6" d="M130.5,83.7c-6.2,0-11.2-5-11.2-11.2c0-6.2,5-11.2,11.2-11.2c6.2,0,11.2,5,11.2,11.2&#10;&#9;&#9;&#9;&#9;&#9;C141.7,78.7,136.7,83.7,130.5,83.7z M130.5,65c-4.2,0-7.5,3.4-7.5,7.5c0,4.2,3.4,7.5,7.5,7.5c4.2,0,7.5-3.4,7.5-7.5&#10;&#9;&#9;&#9;&#9;&#9;C138,68.3,134.7,65,130.5,65z" style="fill: none; stroke: rgb(0, 122, 180); stroke-width: 2; stroke-miterlimit: 10;"/>
			</g>
		</g>
		<g>
			<g>
				<g>
					<g>
						<g>
							<g>
								<g>
									<g>
										<path class="st6" d="M177,84.6l-7-7c-0.7-0.7-0.7-1.6,0-2.3c0.7-0.7,1.6-0.7,2.3,0l7,7c0.7,0.7,0.7,1.6,0,2.3&#10;&#9;&#9;&#9;&#9;&#9;&#9;&#9;&#9;&#9;&#9;&#9;C178.6,85.3,177.7,85.3,177,84.6z" style="fill: none; stroke: rgb(0, 122, 180); stroke-width: 2; stroke-miterlimit: 10;"/>
									</g>
								</g>
							</g>
						</g>
					</g>
				</g>
				<g>
					<g>
						<g>
							<g>
								<g>
									<g>
										<path class="st6" d="M170,84.6c-0.7-0.7-0.7-1.6,0-2.3l7-7c0.7-0.7,1.6-0.7,2.3,0c0.7,0.7,0.7,1.6,0,2.3l-7,7&#10;&#9;&#9;&#9;&#9;&#9;&#9;&#9;&#9;&#9;&#9;&#9;C171.6,85.3,170.7,85.3,170,84.6z" style="fill: none; stroke: rgb(0, 122, 180); stroke-width: 2; stroke-miterlimit: 10;"/>
									</g>
								</g>
							</g>
						</g>
					</g>
				</g>
			</g>
		</g>
	</g><g transform="matrix(1, 0, 0, 1, 2.842170943040401e-14, 0)">
			<path d="M 1338.400024 192.699997 L 1304.5 192.699997" class="st6" style="fill: none; stroke: rgb(0, 122, 180); stroke-width: 2; stroke-miterlimit: 10;"/>
			<path d="M 1321.5 175.699997 L 1321.5 209.600006" class="st6" style="fill: none; stroke: rgb(0, 122, 180); stroke-width: 2; stroke-miterlimit: 10;"/>
		</g><path d="M 1212.800049 47.599998 L 1178.900024 47.599998" class="st6" style="fill: none; stroke: rgb(0, 122, 180); stroke-width: 2; stroke-miterlimit: 10;" transform="matrix(1, 0, 0, 1, 4.263256414560601e-14, 0)"/><path d="M 1195.800049 30.700001 L 1195.800049 64.599998" class="st6" style="fill: none; stroke: rgb(0, 122, 180); stroke-width: 2; stroke-miterlimit: 10;" transform="matrix(1, 0, 0, 1, 4.263256414560601e-14, 0)"/><path d="M 103.800003 382.100006 L 69.900002 382.100006" class="st6" style="fill: none; stroke: rgb(0, 122, 180); stroke-width: 2; stroke-miterlimit: 10;" transform="matrix(1, 0, 0, 1, 4.263256414560601e-14, 0)"/><path d="M 86.900002 365.200012 L 86.900002 399.100006" class="st6" style="fill: none; stroke: rgb(0, 122, 180); stroke-width: 2; stroke-miterlimit: 10;" transform="matrix(1, 0, 0, 1, 4.263256414560601e-14, 0)"/><path d="M 1263.699951 57.400002 L 1252.599976 46.299999" class="st6" style="fill: none; stroke: rgb(0, 122, 180); stroke-width: 2; stroke-miterlimit: 10;" transform="matrix(1, 0, 0, 1, 4.263256414560601e-14, 0)"/><path d="M 1263.699951 46.299999 L 1252.599976 57.400002" class="st6" style="fill: none; stroke: rgb(0, 122, 180); stroke-width: 2; stroke-miterlimit: 10;" transform="matrix(1, 0, 0, 1, 4.263256414560601e-14, 0)"/><path d="M 1356.400024 147.300003 L 1345.300049 136.199997" class="st6" style="fill: none; stroke: rgb(0, 122, 180); stroke-width: 2; stroke-miterlimit: 10;" transform="matrix(1, 0, 0, 1, 4.263256414560601e-14, 0)"/><path d="M 1356.400024 136.199997 L 1345.300049 147.300003" class="st6" style="fill: none; stroke: rgb(0, 122, 180); stroke-width: 2; stroke-miterlimit: 10;" transform="matrix(1, 0, 0, 1, 4.263256414560601e-14, 0)"/><path d="M 1365.900024 702.200012 L 1354.800049 691.099976" class="st6" style="fill: none; stroke: rgb(0, 122, 180); stroke-width: 2; stroke-miterlimit: 10;" transform="matrix(1, 0, 0, 1, 4.263256414560601e-14, 0)"/><path d="M 1365.900024 691.099976 L 1354.800049 702.200012" class="st6" style="fill: none; stroke: rgb(0, 122, 180); stroke-width: 2; stroke-miterlimit: 10;" transform="matrix(1, 0, 0, 1, 4.263256414560601e-14, 0)"/><path d="M 103.800003 429.799988 L 92.699997 418.700012" class="st6" style="fill: none; stroke: rgb(0, 122, 180); stroke-width: 2; stroke-miterlimit: 10;" transform="matrix(1, 0, 0, 1, 4.263256414560601e-14, 0)"/><path d="M 103.800003 418.700012 L 92.699997 429.799988" class="st6" style="fill: none; stroke: rgb(0, 122, 180); stroke-width: 2; stroke-miterlimit: 10;" transform="matrix(1, 0, 0, 1, 4.263256414560601e-14, 0)"/><path d="M 598.299988 87.400002 L 587.200012 76.300003" class="st6" style="fill: none; stroke: rgb(0, 122, 180); stroke-width: 2; stroke-miterlimit: 10;" transform="matrix(1, 0, 0, 1, 4.263256414560601e-14, 0)"/><path d="M 598.299988 76.300003 L 587.200012 87.400002" class="st6" style="fill: none; stroke: rgb(0, 122, 180); stroke-width: 2; stroke-miterlimit: 10;" transform="matrix(1, 0, 0, 1, 4.263256414560601e-14, 0)"/><path class="st6" d="M991.1,898.1c3.6-0.9,6.8,2,6.2,5.6c-0.3,2.1-2,3.8-4.1,4.1c-3.5,0.5-6.5-2.7-5.6-6.2&#10;&#9;&#9;&#9;&#9;C988.1,899.9,989.5,898.6,991.1,898.1z" style="fill: none; stroke: rgb(0, 122, 180); stroke-width: 2; stroke-miterlimit: 10;" transform="matrix(1, 0, 0, 1, 4.263256414560601e-14, 0)"/><path class="st6" d="M991.1,876.2c3.6-0.9,6.8,2,6.2,5.6c-0.3,2.1-2,3.8-4.1,4.1c-3.5,0.5-6.5-2.7-5.6-6.2&#10;&#9;&#9;&#9;&#9;C988.1,878,989.5,876.6,991.1,876.2z" style="fill: none; stroke: rgb(0, 122, 180); stroke-width: 2; stroke-miterlimit: 10;" transform="matrix(1, 0, 0, 1, 4.263256414560601e-14, 0)"/><path class="st6" d="M991.1,854.2c3.6-0.9,6.8,2,6.2,5.6c-0.3,2.1-2,3.8-4.1,4.1c-3.5,0.5-6.5-2.7-5.6-6.2&#10;&#9;&#9;&#9;&#9;C988.1,856,989.5,854.7,991.1,854.2z" style="fill: none; stroke: rgb(0, 122, 180); stroke-width: 2; stroke-miterlimit: 10;" transform="matrix(1, 0, 0, 1, 4.263256414560601e-14, 0)"/><path class="st6" d="M158.2,563.8c5.3-4,11.3,2,7.3,7.3C160.1,575.2,154.1,569.1,158.2,563.8z" style="fill: none; stroke: rgb(0, 122, 180); stroke-width: 2; stroke-miterlimit: 10;" transform="matrix(1, 0, 0, 1, 4.263256414560601e-14, 0)"/><path class="st6" d="M158.2,520c5.3-4,11.3,2,7.3,7.3C160.1,531.3,154.1,525.3,158.2,520z" style="fill: none; stroke: rgb(0, 122, 180); stroke-width: 2; stroke-miterlimit: 10;" transform="matrix(1, 0, 0, 1, 4.263256414560601e-14, 0)"/><path d="M 407.700012 927.200012 A 5 5 0 0 1 402.700012 932.200012 A 5 5 0 0 1 397.700012 927.200012 A 5 5 0 0 1 402.700012 922.200012 A 5 5 0 0 1 407.700012 927.200012 Z" class="st6" style="fill: none; stroke: rgb(0, 122, 180); stroke-width: 2; stroke-miterlimit: 10;" transform="matrix(1, 0, 0, 1, 4.263256414560601e-14, 0)"/><path d="M 429.600006 927.200012 A 5 5 0 0 1 424.600006 932.200012 A 5 5 0 0 1 419.600006 927.200012 A 5 5 0 0 1 424.600006 922.200012 A 5 5 0 0 1 429.600006 927.200012 Z" class="st6" style="fill: none; stroke: rgb(0, 122, 180); stroke-width: 2; stroke-miterlimit: 10;" transform="matrix(1, 0, 0, 1, 4.263256414560601e-14, 0)"/><path d="M 451.600006 927.200012 A 5 5 0 0 1 446.600006 932.200012 A 5 5 0 0 1 441.600006 927.200012 A 5 5 0 0 1 446.600006 922.200012 A 5 5 0 0 1 451.600006 927.200012 Z" class="st6" style="fill: none; stroke: rgb(0, 122, 180); stroke-width: 2; stroke-miterlimit: 10;" transform="matrix(1, 0, 0, 1, 4.263256414560601e-14, 0)"/><path d="M 1283.300049 177.300003 L 1264.300049 177.300003" class="st6" style="fill: none; stroke: rgb(0, 122, 180); stroke-width: 2; stroke-miterlimit: 10;" transform="matrix(1, 0, 0, 1, 4.263256414560601e-14, 0)"/><path d="M 1273.800049 167.800003 L 1273.800049 186.800003" class="st6" style="fill: none; stroke: rgb(0, 122, 180); stroke-width: 2; stroke-miterlimit: 10;" transform="matrix(1, 0, 0, 1, 4.263256414560601e-14, 0)"/><path d="M 136.199997 347.799988 L 117.199997 347.799988" class="st6" style="fill: none; stroke: rgb(0, 122, 180); stroke-width: 2; stroke-miterlimit: 10;" transform="matrix(1, 0, 0, 1, 4.263256414560601e-14, 0)"/><path d="M 126.699997 338.299988 L 126.699997 357.299988" class="st6" style="fill: none; stroke: rgb(0, 122, 180); stroke-width: 2; stroke-miterlimit: 10;" transform="matrix(1, 0, 0, 1, 4.263256414560601e-14, 0)"/><path d="M 996.5 809 L 977.5 809" class="st6" style="fill: none; stroke: rgb(0, 122, 180); stroke-width: 2; stroke-miterlimit: 10;" transform="matrix(1, 0, 0, 1, 4.263256414560601e-14, 0)"/><path d="M 987 799.5 L 987 818.5" class="st6" style="fill: none; stroke: rgb(0, 122, 180); stroke-width: 2; stroke-miterlimit: 10;" transform="matrix(1, 0, 0, 1, 4.263256414560601e-14, 0)"/><path d="M 79.400002 897.900024 L 60.400002 897.900024" class="st6" style="fill: none; stroke: rgb(0, 122, 180); stroke-width: 2; stroke-miterlimit: 10;" transform="matrix(1, 0, 0, 1, 4.263256414560601e-14, 0)"/><path d="M 69.900002 888.400024 L 69.900002 907.400024" class="st6" style="fill: none; stroke: rgb(0, 122, 180); stroke-width: 2; stroke-miterlimit: 10;" transform="matrix(1, 0, 0, 1, 4.263256414560601e-14, 0)"/><path d="M 1365.800049 651.700012 L 1346.800049 651.700012" class="st6" style="fill: none; stroke: rgb(0, 122, 180); stroke-width: 2; stroke-miterlimit: 10;" transform="matrix(1, 0, 0, 1, 4.263256414560601e-14, 0)"/><path d="M 1356.300049 642.200012 L 1356.300049 661.200012" class="st6" style="fill: none; stroke: rgb(0, 122, 180); stroke-width: 2; stroke-miterlimit: 10;" transform="matrix(1, 0, 0, 1, 4.263256414560601e-14, 0)"/><path d="M 1085.699951 78.300003 L 1143.699951 78.300003" class="st6" style="fill: none; stroke: rgb(0, 122, 180); stroke-width: 2; stroke-miterlimit: 10;" transform="matrix(1, 0, 0, 1, 2.842170943040401e-14, 0)"/>
<path d="M 31.11015510559082 86.28308868408203 C 31.11015510559082 86.28308868408203 29.00483512878418 86.28308868408203 33.215476989746094 86.28308868408203" style="fill: rgb(36, 48, 94); fill-opacity: 1; stroke: rgb(0, 0, 0); stroke-opacity: 1; stroke-width: 0; paint-order: fill;"/></svg>